Coordinates
nRows=8
nColumns=38

# SIMM Motion File Header:
name Coordinates
datacolumns 38
datarows 8
otherdata 1
range 1.29200000000000000000 1.29899999999999990000

Units are S.I. units (second, meters, Newtons, ...)
Angles are in degrees.

endheader
time	pelvis_tilt	pelvis_list	pelvis_rotation	pelvis_tx	pelvis_ty	pelvis_tz	hip_flexion_r	hip_adduction_r	hip_rotation_r	knee_angle_r	ankle_angle_r	subtalar_angle_r	mtp_angle_r	hip_flexion_l	hip_adduction_l	hip_rotation_l	knee_angle_l	ankle_angle_l	subtalar_angle_l	mtp_angle_l	lumbar_extension	lumbar_bending	lumbar_rotation	arm_flex_r	arm_add_r	arm_rot_r	elbow_flex_r	pro_sup_r	wrist_flex_r	wrist_dev_r	arm_flex_l	arm_add_l	arm_rot_l	elbow_flex_l	pro_sup_l	wrist_flex_l	wrist_dev_l
      1.29200000000000000000	     -8.18857631190335060000	      1.89118174005110750000	      1.82283311597306970000	      0.89086490374419480000	      0.95218720081981623000	     -0.32033613253443305000	     45.94905470084837900000	     -2.82849341437016740000	     -0.76861529144531870000	   -127.68435480601985000000	      2.87768236695447180000	      0.00000000000020551395	     -0.00000000000025350614	     14.38657826327498800000	      9.90601170672171350000	      0.28363620797174610000	    -43.01229128981916000000	     26.49933712024169800000	      0.00000000000002315127	      0.00000000000002260370	     -6.31235330829562180000	     -4.41709405786254640000	     -9.29754464567423080000	    -34.62076218744844200000	    -20.72600421958612300000	     -5.09415606405013220000	     93.19047898134140000000	     86.68476499983943000000	     -0.00000000000002176607	     -0.00000000000002065318	     -9.23246223738873440000	    -29.42898424286271800000	     -4.87045304200992040000	    112.81626689344237000000	    123.69710248001239000000	     -0.00000000000000351457	      0.00000000000000135398
      1.29299999999999990000	     -8.19151948580586970000	      1.80740572936536030000	      1.90471211133373620000	      0.89087517592060605000	      0.95274327600957354000	     -0.32043226418315862000	     46.28554708111288100000	     -2.80383674024296430000	     -0.88874741256093326000	   -127.41677618881015000000	      2.96924345508957680000	      0.00000000000020588650	     -0.00000000000025419615	     13.97314487923069300000	      9.81538210788472480000	      0.42507275676849843000	    -42.72348120437100500000	     26.31532143795768500000	      0.00000000000002310621	      0.00000000000002251515	     -6.30077651574101340000	     -4.30768020140186890000	     -9.50882250434963080000	    -34.83721240209927600000	    -20.72564419414711200000	     -5.07181855449164140000	     93.24331474121642300000	     86.43126791743748100000	     -0.00000000000002168977	     -0.00000000000002076954	     -9.07371021435615080000	    -29.47987274434733600000	     -4.82571822259464690000	    112.97802231040745000000	    123.52413497141032000000	     -0.00000000000000353862	      0.00000000000000135680
      1.29400000000000000000	     -8.19529964934694630000	      1.72288653158554770000	      1.98741799211732230000	      0.89089219970127331000	      0.95330563267552737000	     -0.32052950069130104000	     46.61856682167984900000	     -2.78116898800086430000	     -1.01090232882933770000	   -127.14138684032839000000	      3.05936875687958310000	      0.00000000000020626114	     -0.00000000000025488528	     13.55926433314217600000	      9.72252681762800290000	      0.56770450114073046000	    -42.42993681640054100000	     26.12033688083955600000	      0.00000000000002306725	      0.00000000000002239506	     -6.28721545675197560000	     -4.19735112706042470000	     -9.71892270063433730000	    -35.05551375905209700000	    -20.72457823545665100000	     -5.05193222123437290000	     93.29892377911849600000	     86.18770488629735400000	     -0.00000000000002161340	     -0.00000000000002088793	     -8.91579240942356140000	    -29.53114436535661700000	     -4.77755972747769240000	    113.14060241626470000000	    123.34454556722136000000	     -0.00000000000000356195	      0.00000000000000135427
      1.29499999999999990000	     -8.20007659215409030000	      1.63764169614569210000	      2.07088692172679910000	      0.89091575353645114000	      0.95387391804909272000	     -0.32062772653691124000	     46.94827862349777800000	     -2.76044532291841140000	     -1.13495925460843550000	   -126.85830807203780000000	      3.14806741160367800000	      0.00000000000020663644	     -0.00000000000025557482	     13.14529919374764500000	      9.62739942380440180000	      0.71129208791641962000	    -42.13185800899579200000	     25.91426249379440700000	      0.00000000000002304632	      0.00000000000002233348	     -6.27150926093219230000	     -4.08615353047854860000	     -9.92776268926614770000	    -35.27560616448949600000	    -20.72274269924265900000	     -5.03451996247710460000	     93.35708318218037500000	     85.95415804141045200000	     -0.00000000000002153658	     -0.00000000000002100862	     -8.75868755456393980000	    -29.58272697945594500000	     -4.72599268817491680000	    113.30393844655273000000	    123.15880793256711000000	     -0.00000000000000358440	      0.00000000000000134602
      1.29600000000000000000	     -8.20600141627687660000	      1.55171400623156060000	      2.15505191131174320000	      0.89094561518800075000	      0.95444779330009277000	     -0.32072682194607371000	     47.27484158250811700000	     -2.74163824170298120000	     -1.26077886507694340000	   -126.56766430280520000000	      3.23534490578247120000	      0.00000000000020702212	     -0.00000000000025626259	     12.73160012925231200000	      9.52998247203360190000	      0.85558398154526261000	    -41.82943618153235800000	     25.69696446740334400000	      0.00000000000002303853	      0.00000000000002229422	     -6.25350950684697970000	     -3.97416322029417040000	    -10.13526554928289700000	    -35.49742331496012300000	    -20.72007186086974400000	     -5.01959651098731730000	     93.41757021457743800000	     85.73068080073700500000	     -0.00000000000002145962	     -0.00000000000002112853	     -8.60238137118199830000	    -29.63455162864824600000	     -4.67104722840108000000	    113.46796968842727000000	    122.96741217289255000000	     -0.00000000000000360608	      0.00000000000000133780
      1.29699999999999990000	     -8.21321360853298010000	      1.46514398756281720000	      2.23984500246906840000	      0.89098156501589909000	      0.95502693938785366000	     -0.32082666337310123000	     47.59840076039385100000	     -2.72471395827423810000	     -1.38822603856225850000	   -126.26957413196018000000	      3.32120572589243860000	      0.00000000000020740411	     -0.00000000000025694745	     12.31850478923203300000	      9.43025803763976180000	      1.00032230710130570000	    -41.52286314351586300000	     25.46830909175971100000	      0.00000000000002302614	      0.00000000000002224818	     -6.23308221141117170000	     -3.86145351319053360000	    -10.34135905898230900000	    -35.72089352211667500000	    -20.71650376289526100000	     -5.00717035004119730000	     93.48016427536212800000	     85.51729645985587100000	     -0.00000000000002138385	     -0.00000000000002125191	     -8.44686485030849180000	    -29.68654532636136200000	     -4.61276696454659610000	    113.63263997357160000000	    122.77086507039837000000	     -0.00000000000000362767	      0.00000000000000130449
      1.29800000000000000000	     -8.22184030280306290000	      1.37797111994041900000	      2.32519706313318820000	      0.89102338703168060000	      0.95561105804558477000	     -0.32092712352267228000	     47.91908653463142500000	     -2.70963346846630590000	     -1.51716903748834090000	   -125.96415061681458000000	      3.40565320157324570000	      0.00000000000020778353	     -0.00000000000025763382	     11.90633606871115500000	      9.32820924850561540000	      1.14524354971751400000	    -41.21232967445870100000	     25.22816255768351800000	      0.00000000000002301555	      0.00000000000002216175	     -6.21010848714615800000	     -3.74809649326740100000	    -10.54597530551888700000	    -35.94594002311855300000	    -20.71198003172331100000	     -4.99724384731394090000	     93.54464741859384000000	     85.31399952642064500000	     -0.00000000000002130852	     -0.00000000000002137927	     -8.29213397853322040000	    -29.73863187557250500000	     -4.55120846773185580000	    113.79789760249992000000	    122.56968645890508000000	     -0.00000000000000364974	      0.00000000000000125526
      1.29899999999999990000	     -8.23199599386877170000	      1.29023300333184500000	      2.41104311387331640000	      0.89107086893972920000	      0.95619987264500028000	     -0.32102807861456528000	     48.23701293662120500000	     -2.69635596349870180000	     -1.64748390057647810000	   -125.65150088281165000000	      3.48869024584269650000	      0.00000000000020816496	     -0.00000000000025832099	     11.49540166196199900000	      9.22382081159206100000	      1.29008489795669680000	    -40.89802639794869800000	     24.97639087942901200000	      0.00000000000002300287	      0.00000000000002208025	     -6.18448503470903250000	     -3.63416159345020380000	    -10.74905557784839300000	    -36.17248125605353000000	    -20.70644575909130200000	     -4.98981337810585400000	     93.61080473758389100000	     85.12075704385971200000	     -0.00000000000002123440	     -0.00000000000002150889	     -8.13818944913918330000	    -29.79073248412221300000	     -4.48644070549103450000	    113.96369512411677000000	    122.36440571021205000000	     -0.00000000000000367167	      0.00000000000000120142
